<svg xmlns="http://www.w3.org/2000/svg" viewBox="0 0 64 64">
  <defs>
    <linearGradient id="bg" x1="10" x2="54" y1="8" y2="58" gradientUnits="userSpaceOnUse">
      <stop stop-color="#34369a"/>
      <stop offset="1" stop-color="#24266d"/>
    </linearGradient>
    <linearGradient id="machine" x1="14" x2="50" y1="22" y2="45" gradientUnits="userSpaceOnUse">
      <stop stop-color="#ffffff"/>
      <stop offset="1" stop-color="#dfe8f3"/>
    </linearGradient>
  </defs>
  <rect width="64" height="64" rx="14" fill="url(#bg)"/>
  <path d="M8 47h48" stroke="#111827" stroke-opacity=".28" stroke-width="3" stroke-linecap="round"/>
  <path d="M14 26h24.5C45.4 26 51 31.6 51 38.5V46H14V26Z" fill="url(#machine)"/>
  <path d="M14 26h24.5C45.4 26 51 31.6 51 38.5V46H14V26Z" fill="none" stroke="#ffffff" stroke-opacity=".75" stroke-width="2"/>
  <path d="M19 26v-7h14" fill="none" stroke="#ffffff" stroke-width="5" stroke-linecap="round" stroke-linejoin="round"/>
  <path d="M37 19h9" stroke="#ffffff" stroke-width="5" stroke-linecap="round"/>
  <path d="M51 31h5v11" fill="none" stroke="#dfe8f3" stroke-width="4" stroke-linecap="round" stroke-linejoin="round"/>
  <circle cx="25" cy="36" r="5.8" fill="#303184"/>
  <circle cx="39" cy="36" r="5.8" fill="#303184"/>
  <path d="M20.5 36h9M34.5 36h9" stroke="#ffffff" stroke-width="3.4" stroke-linecap="round"/>
  <path d="M18 46v6M47 46v6" stroke="#dfe8f3" stroke-width="4" stroke-linecap="round"/>
  <path d="M14 52h12M43 52h12" stroke="#dfe8f3" stroke-width="4" stroke-linecap="round"/>
  <path d="M10 11h12" stroke="#ed3348" stroke-width="4" stroke-linecap="round"/>
</svg>
